<svg xmlns="http://www.w3.org/2000/svg" viewBox="0 0 500 500"><g id="freepik--Device--inject-2"><path d="M394.42,392.38l-126.13-.08a27.48,27.48,0,0,1-27.46-27.48l.06-316.21a27.48,27.48,0,0,1,27.49-27.47l126.13.08A27.48,27.48,0,0,1,422,48.7l-.06,316.21A27.47,27.47,0,0,1,394.42,392.38Z" style="fill:#263238"></path><path d="M394.38,32.4H369.92a6.06,6.06,0,0,0-5.93,6.2V43a6.07,6.07,0,0,1-5.94,6.2l-47.66,0A6.08,6.08,0,0,1,304.44,43V38.56a6.08,6.08,0,0,0-5.94-6.21h-30a19.24,19.24,0,0,0-19.25,19.24l-.06,308.64a19.25,19.25,0,0,0,19.23,19.25l125.88.07a19.25,19.25,0,0,0,19.25-19.24l.06-308.64A19.25,19.25,0,0,0,394.38,32.4Z" style="fill:#fff"></path><path d="M394.38,32.4H369.92a6.06,6.06,0,0,0-5.93,6.2V43a6.07,6.07,0,0,1-5.94,6.2l-47.66,0A6.08,6.08,0,0,1,304.44,43V38.56a6.08,6.08,0,0,0-5.94-6.21h-30a19.24,19.24,0,0,0-19.25,19.24V81.9H413.6V51.65A19.25,19.25,0,0,0,394.38,32.4Z" style="fill:#ebebeb"></path><path d="M396.07,56.68a2.13,2.13,0,1,1-2.13-2.12A2.13,2.13,0,0,1,396.07,56.68Z" style="fill:#263238"></path><path d="M396.07,62.43a2.13,2.13,0,1,1-2.13-2.13A2.12,2.12,0,0,1,396.07,62.43Z" style="fill:#263238"></path><path d="M396.07,68.17a2.13,2.13,0,1,1-2.13-2.12A2.12,2.12,0,0,1,396.07,68.17Z" style="fill:#263238"></path><circle cx="400.42" cy="96.82" r="2.88" style="fill:#e0e0e0"></circle><path d="M396.82,101.3a2.88,2.88,0,1,1-2.88-2.88A2.88,2.88,0,0,1,396.82,101.3Z" style="fill:#e0e0e0"></path><path d="M403.3,105.42a2.88,2.88,0,1,1-2.88-2.88A2.88,2.88,0,0,1,403.3,105.42Z" style="fill:#e0e0e0"></path><polygon points="399.6 105.84 393.03 101.29 400.12 96.39 400.72 97.25 394.86 101.3 400.19 104.99 399.6 105.84" style="fill:#e0e0e0"></polygon><rect x="262.11" y="88.8" width="123.26" height="26.26" rx="12.56" style="fill:#ebebeb"></rect><path d="M281.62,102v2.85h-1.44v-2.62c0-.81-.37-1.18-1-1.18s-1.19.43-1.19,1.34v2.46h-1.44V98H278v2.41a2.18,2.18,0,0,1,1.58-.6A2,2,0,0,1,281.62,102Z" style="fill:#263238"></path><path d="M286.13,104.59a2,2,0,0,1-1.17.32,1.64,1.64,0,0,1-1.86-1.79v-2h-.77V100h.77V98.76h1.44V100h1.24v1.11h-1.24v2a.58.58,0,0,0,.62.66,1,1,0,0,0,.59-.18Z" style="fill:#263238"></path><path d="M290,104.59a2,2,0,0,1-1.17.32,1.64,1.64,0,0,1-1.86-1.79v-2h-.77V100H287V98.76h1.44V100h1.24v1.11h-1.24v2a.58.58,0,0,0,.62.66,1,1,0,0,0,.59-.18Z" style="fill:#263238"></path><path d="M296.28,102.35a2.42,2.42,0,0,1-2.48,2.56,2,2,0,0,1-1.5-.6v2.32h-1.44V99.86h1.38v.57a1.94,1.94,0,0,1,1.56-.65A2.42,2.42,0,0,1,296.28,102.35Zm-1.47,0a1.27,1.27,0,1,0-1.26,1.37A1.25,1.25,0,0,0,294.81,102.35Z" style="fill:#263238"></path><path d="M296.76,104.37l.48-1a3.37,3.37,0,0,0,1.73.49c.66,0,.91-.18.91-.46,0-.81-3,0-3-2,0-.94.85-1.61,2.3-1.61a4.05,4.05,0,0,1,1.91.44l-.48,1a2.91,2.91,0,0,0-1.43-.36c-.65,0-.93.2-.93.46,0,.85,3,0,3,2,0,.92-.86,1.58-2.35,1.58A4.2,4.2,0,0,1,296.76,104.37Z" style="fill:#263238"></path><path d="M301.8,100.68a.9.9,0,0,1,1.79,0,.9.9,0,1,1-1.79,0Zm0,3.32a.9.9,0,0,1,1.79,0,.9.9,0,1,1-1.79,0Z" style="fill:#263238"></path><path d="M307.14,97.05h1.28l-3.05,8.71h-1.28Z" style="fill:#263238"></path><path d="M310.09,97.05h1.28l-3.05,8.71H307Z" style="fill:#263238"></path><path d="M319.34,99.86l-1.8,5h-1.39L315,101.74l-1.16,3.09h-1.39l-1.79-5h1.36l1.17,3.36,1.22-3.36h1.22l1.19,3.36,1.21-3.36Z" style="fill:#263238"></path><path d="M327.89,99.86l-1.81,5H324.7l-1.12-3.09-1.16,3.09H321l-1.8-5h1.36l1.18,3.36L323,99.86h1.22l1.18,3.36,1.21-3.36Z" style="fill:#263238"></path><path d="M336.43,99.86l-1.8,5h-1.39l-1.12-3.09L331,104.83h-1.39l-1.8-5h1.36l1.18,3.36,1.22-3.36h1.22l1.18,3.36,1.21-3.36Z" style="fill:#263238"></path><path d="M336.46,104a.9.9,0,0,1,1.79,0,.9.9,0,1,1-1.79,0Z" style="fill:#263238"></path><path d="M338.88,104a.9.9,0,0,1,1.79,0,.9.9,0,1,1-1.79,0Z" style="fill:#263238"></path><path d="M341.3,104a.9.9,0,0,1,1.8,0,.9.9,0,1,1-1.8,0Z" style="fill:#263238"></path><path d="M368.89,65.21c0,.15-15.64.26-34.93.26S299,65.36,299,65.21,314.67,65,334,65,368.89,65.07,368.89,65.21Z" style="fill:#263238"></path><path d="M396.35,324.38c0,.15-28.62.26-63.91.26s-63.92-.11-63.92-.26,28.61-.26,63.92-.26S396.35,324.24,396.35,324.38Z" style="fill:#e0e0e0"></path><path d="M396.35,313.42c0,.14-28.62.26-63.91.26s-63.92-.12-63.92-.26,28.61-.26,63.92-.26S396.35,313.27,396.35,313.42Z" style="fill:#e0e0e0"></path><path d="M396.35,302.45c0,.14-28.62.26-63.91.26s-63.92-.12-63.92-.26,28.61-.26,63.92-.26S396.35,302.3,396.35,302.45Z" style="fill:#e0e0e0"></path><path d="M396.35,291.48c0,.14-28.62.26-63.91.26s-63.92-.12-63.92-.26,28.61-.26,63.92-.26S396.35,291.34,396.35,291.48Z" style="fill:#e0e0e0"></path><path d="M396.35,280.51c0,.15-28.62.26-63.91.26s-63.92-.11-63.92-.26,28.61-.26,63.92-.26S396.35,280.37,396.35,280.51Z" style="fill:#e0e0e0"></path><path d="M396.35,269.54c0,.15-28.62.26-63.91.26s-63.92-.11-63.92-.26,28.61-.26,63.92-.26S396.35,269.4,396.35,269.54Z" style="fill:#e0e0e0"></path><path d="M396.35,258.58c0,.14-28.62.26-63.91.26s-63.92-.12-63.92-.26,28.61-.26,63.92-.26S396.35,258.43,396.35,258.58Z" style="fill:#e0e0e0"></path><path d="M396.35,247.61c0,.14-28.62.26-63.91.26s-63.92-.12-63.92-.26,28.61-.26,63.92-.26S396.35,247.46,396.35,247.61Z" style="fill:#e0e0e0"></path><path d="M396.35,236.64c0,.14-28.62.26-63.91.26s-63.92-.12-63.92-.26,28.61-.26,63.92-.26S396.35,236.5,396.35,236.64Z" style="fill:#e0e0e0"></path><path d="M396.35,225.67c0,.15-28.62.26-63.91.26s-63.92-.11-63.92-.26,28.61-.26,63.92-.26S396.35,225.53,396.35,225.67Z" style="fill:#e0e0e0"></path><path d="M396.35,214.7c0,.15-28.62.26-63.91.26s-63.92-.11-63.92-.26,28.61-.26,63.92-.26S396.35,214.56,396.35,214.7Z" style="fill:#e0e0e0"></path><path d="M396.35,203.74c0,.14-28.62.26-63.91.26s-63.92-.12-63.92-.26,28.61-.26,63.92-.26S396.35,203.59,396.35,203.74Z" style="fill:#e0e0e0"></path><path d="M396.35,192.77c0,.14-28.62.26-63.91.26s-63.92-.12-63.92-.26,28.61-.26,63.92-.26S396.35,192.62,396.35,192.77Z" style="fill:#e0e0e0"></path><path d="M396.35,181.8c0,.14-28.62.26-63.91.26s-63.92-.12-63.92-.26,28.61-.26,63.92-.26S396.35,181.66,396.35,181.8Z" style="fill:#e0e0e0"></path><path d="M396.35,170.83c0,.15-28.62.26-63.91.26s-63.92-.11-63.92-.26,28.61-.26,63.92-.26S396.35,170.69,396.35,170.83Z" style="fill:#e0e0e0"></path><path d="M396.35,159.86c0,.15-28.62.26-63.91.26s-63.92-.11-63.92-.26,28.61-.26,63.92-.26S396.35,159.72,396.35,159.86Z" style="fill:#e0e0e0"></path><path d="M396.35,148.9c0,.14-28.62.26-63.91.26s-63.92-.12-63.92-.26,28.61-.26,63.92-.26S396.35,148.75,396.35,148.9Z" style="fill:#e0e0e0"></path><path d="M396.35,137.93c0,.14-28.62.26-63.91.26s-63.92-.12-63.92-.26,28.61-.26,63.92-.26S396.35,137.78,396.35,137.93Z" style="fill:#e0e0e0"></path><path d="M396.35,127c0,.14-28.62.26-63.91.26s-63.92-.12-63.92-.26,28.61-.26,63.92-.26S396.35,126.82,396.35,127Z" style="fill:#e0e0e0"></path><path d="M396.35,335.35c0,.15-28.62.26-63.91.26s-63.92-.11-63.92-.26,28.61-.26,63.92-.26S396.35,335.21,396.35,335.35Z" style="fill:#e0e0e0"></path><path d="M396.35,346.32c0,.14-28.62.26-63.91.26s-63.92-.12-63.92-.26,28.61-.26,63.92-.26S396.35,346.18,396.35,346.32Z" style="fill:#e0e0e0"></path><path d="M396.35,357.29c0,.14-28.62.26-63.91.26s-63.92-.12-63.92-.26,28.61-.26,63.92-.26S396.35,357.14,396.35,357.29Z" style="fill:#e0e0e0"></path><rect x="265.24" y="122.96" width="162.4" height="181.17" rx="7.73" style="fill:#fff"></rect><path d="M419.9,304.13l.44,0a7.87,7.87,0,0,0,1.28-.19,7.75,7.75,0,0,0,4.23-2.65,7.9,7.9,0,0,0,1.57-3.35,29.67,29.67,0,0,0,.14-4.51c0-3.29,0-7.07,0-11.33,0-17.06-.05-41.73-.09-72.21,0-15.24,0-31.94,0-49.86q0-13.45,0-27.78a12.76,12.76,0,0,0-.28-3.51,7.16,7.16,0,0,0-1.67-3,7.41,7.41,0,0,0-2.89-2,8.87,8.87,0,0,0-3.53-.49H404.12l-131.13,0a7.52,7.52,0,0,0-6.75,4.24,8.4,8.4,0,0,0-.74,4.1V153q0,17,0,33.46c0,21.93,0,43.09,0,63.25q0,15.12,0,29.45,0,7.17,0,14.11c0,1.16,0,2.32,0,3.45a7.47,7.47,0,0,0,5.94,7,15.62,15.62,0,0,0,3.29.17H297.3l23.93,0,72.2.08,19.63.05,5.11,0c1.15,0,1.73,0,1.73,0l-1.73,0-5.11,0-19.63.05-72.2.09H274.71a17.57,17.57,0,0,1-3.38-.17,7.95,7.95,0,0,1-6.3-7.45c0-1.16,0-2.3,0-3.47q0-6.94,0-14.11,0-14.32,0-29.45c0-20.16,0-41.32,0-63.25V131.56a8.89,8.89,0,0,1,.79-4.32A8.06,8.06,0,0,1,273,122.7l131.13,0H419a9.14,9.14,0,0,1,3.69.53,7.67,7.67,0,0,1,3.07,2.1,7.79,7.79,0,0,1,1.78,3.23,13.17,13.17,0,0,1,.29,3.63q0,14.33,0,27.78c0,17.92,0,34.62,0,49.86,0,30.48-.06,55.15-.08,72.21q0,6.39,0,11.33a30,30,0,0,1-.17,4.54,8.06,8.06,0,0,1-1.62,3.39,7.68,7.68,0,0,1-4.3,2.63,7.14,7.14,0,0,1-1.29.16Z" style="fill:#263238"></path><path d="M427.82,128.53a8.2,8.2,0,0,0-5-5.5,9.25,9.25,0,0,0-3.79-.55l-146,0a8.22,8.22,0,0,0-7.44,4.67,8.87,8.87,0,0,0-.82,4.44l0,161.7v1.22c0,.75,0,1.5,0,2.26a8.48,8.48,0,0,0,.94,3.49,8.24,8.24,0,0,0,5.56,4.19,9.4,9.4,0,0,0,2,.18h.53q.44,0,.87,0l118.72-.12,19.63-.05,5.11,0,1.74,0h.43a7.35,7.35,0,0,0,1.35-.17,7.82,7.82,0,0,0,4.43-2.72,8.32,8.32,0,0,0,1.68-3.5,16.53,16.53,0,0,0,.16-3.11c0-.48,0-1,0-1.47l.1-83.54,0-49.86V131.71A11.08,11.08,0,0,0,427.82,128.53ZM265.24,208.22V131.56a8.55,8.55,0,0,1,.77-4.22,7.74,7.74,0,0,1,6.91-4.39h0a7.74,7.74,0,0,0-6.9,4.38,8.4,8.4,0,0,0-.77,4.21Zm161.94,89.64a7.69,7.69,0,0,1-1.52,3.24,7.48,7.48,0,0,1-4.09,2.56,7.62,7.62,0,0,1-1.25.19l-.42,0c-.11,0-.69,0-1.73,0l-24.74-.08-72.2-.08-46.51,0h-.9a10.1,10.1,0,0,1-2.35-.16,7.23,7.23,0,0,1-5.74-6.8c0-.73,0-1.47,0-2.21v-1.24l0-161.7a7.89,7.89,0,0,1,.72-4,7.22,7.22,0,0,1,6.45-4.1H273l146.06,0a8.36,8.36,0,0,1,3.43.48,7.28,7.28,0,0,1,4.41,4.85,10.07,10.07,0,0,1,.27,2.93l0,75.63.09,74.73,0,11.32c0,.51,0,1,0,1.49A15.85,15.85,0,0,1,427.18,297.86Z" style="fill:#263238"></path><path d="M286.69,250.47h1.42v5h3.07v1.16h-4.49Z" style="fill:#263238"></path><path d="M291.72,250.47a.78.78,0,0,1,.85-.76.76.76,0,0,1,.85.73.85.85,0,0,1-1.7,0Zm.17,1.42h1.36v4.71h-1.36Z" style="fill:#263238"></path><path d="M299.34,253.9v2.7H298v-2.49c0-.76-.35-1.11-1-1.11s-1.13.4-1.13,1.27v2.33h-1.36v-4.71h1.3v.55a2.08,2.08,0,0,1,1.56-.62A1.84,1.84,0,0,1,299.34,253.9Z" style="fill:#263238"></path><path d="M302.61,254.75l-.66.65v1.2h-1.37v-6.5H302v3.68l2-1.89h1.62l-2,2,2.14,2.72h-1.66Z" style="fill:#263238"></path><path d="M283.72,144.91l.46-1a3.43,3.43,0,0,0,1.95.62c.8,0,1.13-.27,1.13-.63,0-1.11-3.42-.35-3.42-2.54,0-1,.8-1.84,2.48-1.84a3.94,3.94,0,0,1,2.05.53l-.42,1a3.38,3.38,0,0,0-1.64-.46c-.81,0-1.12.3-1.12.67,0,1.09,3.43.34,3.43,2.51,0,1-.82,1.82-2.5,1.82A4.14,4.14,0,0,1,283.72,144.91Z" style="fill:#263238"></path><path d="M294.09,142.9v2.59h-1.31V143.1c0-.73-.34-1.07-.92-1.07s-1.09.39-1.09,1.22v2.24h-1.31v-6.25h1.31v2.19a2,2,0,0,1,1.44-.54A1.78,1.78,0,0,1,294.09,142.9Z" style="fill:#263238"></path><path d="M299.29,142.91v2.58h-1.23v-.56a1.5,1.5,0,0,1-1.38.63c-1.07,0-1.7-.59-1.7-1.37s.57-1.36,1.95-1.36h1c0-.56-.33-.89-1-.89a2.2,2.2,0,0,0-1.31.42l-.47-.92a3.53,3.53,0,0,1,2-.55C298.49,140.89,299.29,141.53,299.29,142.91ZM298,144.06v-.46h-.9c-.61,0-.81.22-.81.53s.28.55.74.55A1,1,0,0,0,298,144.06Z" style="fill:#263238"></path><path d="M303.29,140.89v1.22l-.3,0a1.11,1.11,0,0,0-1.2,1.26v2.14h-1.32V141h1.26v.6A1.83,1.83,0,0,1,303.29,140.89Z" style="fill:#263238"></path><path d="M308.44,143.6H305a1.22,1.22,0,0,0,1.3.91,1.58,1.58,0,0,0,1.14-.44l.69.76a2.64,2.64,0,0,1-4.45-1.6,2.31,2.31,0,0,1,2.42-2.34,2.24,2.24,0,0,1,2.35,2.35C308.46,143.34,308.45,143.49,308.44,143.6Zm-3.45-.77h2.24a1.14,1.14,0,0,0-2.24,0Z" style="fill:#263238"></path><rect x="276.59" y="262.79" width="138.64" height="26.26" rx="12.56" style="fill:#ebebeb"></rect><circle cx="418.08" cy="128.84" r="17.76" style="fill:#7E57C2"></circle><rect x="416.74" y="120.29" width="3.56" height="15.95" transform="translate(213.28 -258.37) rotate(45)" style="fill:#fff"></rect><rect x="416.74" y="120.29" width="3.56" height="15.95" transform="translate(31.88 333.5) rotate(-45)" style="fill:#fff"></rect><rect x="393.87" y="273.74" width="7.66" height="7.66" rx="1.16" style="fill:#263238"></rect><rect x="397.18" y="270.43" width="7.66" height="7.66" rx="1.16" style="fill:#ebebeb"></rect><path d="M403.68,278.6h-5.34a1.67,1.67,0,0,1-1.66-1.67v-5.34a1.67,1.67,0,0,1,1.66-1.66h5.34a1.66,1.66,0,0,1,1.66,1.66v5.34A1.66,1.66,0,0,1,403.68,278.6Zm-5.34-7.67a.67.67,0,0,0-.66.66v5.34a.67.67,0,0,0,.66.67h5.34a.66.66,0,0,0,.66-.67v-5.34a.66.66,0,0,0-.66-.66Z" style="fill:#263238"></path><path d="M296.1,276v2.85h-1.44V276.2c0-.8-.37-1.17-1-1.17s-1.19.42-1.19,1.34v2.46H291V272h1.44v2.4a2.18,2.18,0,0,1,1.58-.59A2,2,0,0,1,296.1,276Z" style="fill:#263238"></path><path d="M300.61,278.59a2.06,2.06,0,0,1-1.17.31,1.64,1.64,0,0,1-1.86-1.78v-2.05h-.77V274h.77v-1.21H299V274h1.24v1.11H299v2a.58.58,0,0,0,.62.65,1,1,0,0,0,.58-.18Z" style="fill:#263238"></path><path d="M304.52,278.59a2.06,2.06,0,0,1-1.17.31,1.64,1.64,0,0,1-1.86-1.78v-2.05h-.77V274h.77v-1.21h1.44V274h1.24v1.11h-1.24v2a.58.58,0,0,0,.62.65,1,1,0,0,0,.59-.18Z" style="fill:#263238"></path><path d="M310.76,276.34a2.42,2.42,0,0,1-2.48,2.56,1.92,1.92,0,0,1-1.5-.6v2.32h-1.44v-6.77h1.37v.58a1.94,1.94,0,0,1,1.57-.65A2.42,2.42,0,0,1,310.76,276.34Zm-1.47,0a1.27,1.27,0,1,0-1.26,1.38A1.25,1.25,0,0,0,309.29,276.34Z" style="fill:#263238"></path><path d="M311.24,278.36l.48-1a3.46,3.46,0,0,0,1.73.48c.66,0,.91-.18.91-.45,0-.82-3,0-3-2,0-.95.85-1.61,2.3-1.61a4,4,0,0,1,1.91.43l-.48,1a2.83,2.83,0,0,0-1.43-.37c-.65,0-.93.2-.93.46,0,.85,3,0,3,2,0,.92-.86,1.58-2.35,1.58A4.2,4.2,0,0,1,311.24,278.36Z" style="fill:#263238"></path><path d="M316.27,274.67a.9.9,0,0,1,1.8,0,.9.9,0,1,1-1.8,0Zm0,3.32a.9.9,0,0,1,1.8,0,.9.9,0,1,1-1.8,0Z" style="fill:#263238"></path><path d="M321.62,271h1.28l-3,8.71h-1.28Z" style="fill:#263238"></path><path d="M324.57,271h1.28l-3.05,8.71h-1.28Z" style="fill:#263238"></path><path d="M333.82,273.85l-1.8,5h-1.39l-1.12-3.09-1.15,3.09H327l-1.79-5h1.36l1.17,3.37,1.22-3.37h1.22l1.19,3.37,1.21-3.37Z" style="fill:#263238"></path><path d="M342.37,273.85l-1.81,5h-1.38l-1.12-3.09-1.16,3.09h-1.39l-1.79-5h1.36l1.18,3.37,1.22-3.37h1.22l1.18,3.37,1.21-3.37Z" style="fill:#263238"></path><path d="M350.91,273.85l-1.8,5h-1.39l-1.12-3.09-1.15,3.09h-1.39l-1.8-5h1.36l1.18,3.37,1.22-3.37h1.22l1.18,3.37,1.21-3.37Z" style="fill:#263238"></path><path d="M350.94,278a.9.9,0,0,1,1.79,0,.9.9,0,1,1-1.79,0Z" style="fill:#263238"></path><path d="M353.36,278a.9.9,0,0,1,1.79,0,.9.9,0,1,1-1.79,0Z" style="fill:#263238"></path><path d="M355.78,278a.9.9,0,0,1,1.8,0,.9.9,0,1,1-1.8,0Z" style="fill:#263238"></path><path d="M424,239.85c0,.15-34.46.27-77,.27s-76.95-.12-76.95-.27,34.45-.26,76.95-.26S424,239.71,424,239.85Z" style="fill:#e0e0e0"></path><circle cx="344.38" cy="170.75" r="13.95" style="fill:#7E57C2"></circle><circle cx="389.14" cy="170.75" r="13.95" style="fill:#7E57C2"></circle><circle cx="299.03" cy="170.75" r="13.95" style="fill:#7E57C2"></circle><circle cx="344.61" cy="212.43" r="13.95" style="fill:#7E57C2"></circle><path d="M336.76,212.76l3.34,1,2,4,2-1.6,3,2.38a.91.91,0,0,0,1.12-.58c.31-.81,2.79-10.57,2.79-10.57s.34-1-.89-.65l-13.24,4.94a.65.65,0,0,0-.42.42A.44.44,0,0,0,336.76,212.76Z" style="fill:#fff"></path><path d="M340.82,213.43l1.39,3.28s.23-2,.26-2l5.8-5.44Z" style="fill:#7E57C2"></path><circle cx="389.14" cy="212.06" r="13.95" style="fill:#7E57C2"></circle><circle cx="299.03" cy="212.06" r="13.95" style="fill:#7E57C2"></circle><path d="M291.85,175.26a8.38,8.38,0,0,0,12.9-7.45,5.74,5.74,0,0,0,1.47-1.52,6,6,0,0,1-1.69.46,2.93,2.93,0,0,0,1.3-1.63,5.85,5.85,0,0,1-1.88.71,2.95,2.95,0,0,0-5,2.7,8.36,8.36,0,0,1-6.08-3.09,3,3,0,0,0,.91,3.94,2.92,2.92,0,0,1-1.34-.37,3,3,0,0,0,2.37,2.93,2.83,2.83,0,0,1-1.33.05,2.93,2.93,0,0,0,2.75,2A5.9,5.9,0,0,1,291.85,175.26Z" style="fill:#fff"></path><path d="M342.21,178.19h3v-7.51h2.09l.22-2.51h-2.31v-1.43c0-.59.11-.83.69-.83h1.62v-2.6h-2.08c-2.23,0-3.23,1-3.23,2.86v2h-1.56v2.54h1.56Z" style="fill:#fff"></path><path d="M397.51,169.79a7.8,7.8,0,0,0-15.58-.14V170a7.65,7.65,0,0,0,1.11,4l-1.4,4.15,4.31-1.37a7.88,7.88,0,0,0,3.77,1,7.76,7.76,0,0,0,7.8-7.73A1.27,1.27,0,0,0,397.51,169.79Zm-7.79,6.7a6.44,6.44,0,0,1-3.6-1.08l-2.52.81.81-2.42a6.45,6.45,0,0,1-1.24-3.81c0-.22,0-.43,0-.64a6.55,6.55,0,0,1,13.05.13,4.24,4.24,0,0,1,0,.51A6.54,6.54,0,0,1,389.72,176.49Z" style="fill:#fff;fill-rule:evenodd"></path><path d="M393.29,171.55c-.19-.1-1.13-.56-1.3-.62s-.31-.09-.43.1-.5.61-.61.74-.22.14-.41,0a5,5,0,0,1-1.54-.94,5.53,5.53,0,0,1-1.06-1.31c-.11-.19,0-.29.08-.38s.19-.23.29-.34l.07-.09.12-.22a.37.37,0,0,0,0-.34l-.59-1.4c-.15-.38-.31-.32-.43-.32l-.36,0a.7.7,0,0,0-.51.24,2.1,2.1,0,0,0-.67,1.58,2.38,2.38,0,0,0,.1.65,4.18,4.18,0,0,0,.68,1.31A7.74,7.74,0,0,0,390,173.1c2,.75,2,.5,2.3.47a1.93,1.93,0,0,0,1.29-.9,1.53,1.53,0,0,0,.11-.9C393.61,171.69,393.48,171.64,393.29,171.55Z" style="fill:#fff;fill-rule:evenodd"></path><path d="M299,206.24c1.84,0,2.06,0,2.78,0a4,4,0,0,1,1.28.23,2.22,2.22,0,0,1,.79.52,2.07,2.07,0,0,1,.51.79,3.57,3.57,0,0,1,.24,1.27c0,.73,0,.94,0,2.78s0,2,0,2.78a3.57,3.57,0,0,1-.24,1.27,2.07,2.07,0,0,1-.51.79,2.22,2.22,0,0,1-.79.52,4,4,0,0,1-1.28.23c-.72,0-.94,0-2.78,0s-2,0-2.77,0a4,4,0,0,1-1.28-.23,2.22,2.22,0,0,1-.79-.52,2.07,2.07,0,0,1-.51-.79,3.57,3.57,0,0,1-.24-1.27c0-.73,0-1,0-2.78s0-2.05,0-2.78a3.57,3.57,0,0,1,.24-1.27,2.07,2.07,0,0,1,.51-.79,2.22,2.22,0,0,1,.79-.52,4,4,0,0,1,1.28-.23c.72,0,.94,0,2.77,0m0-1.24c-1.86,0-2.1,0-2.83,0a5,5,0,0,0-1.67.32,3.41,3.41,0,0,0-1.22.79,3.46,3.46,0,0,0-.79,1.22,5.2,5.2,0,0,0-.32,1.67c0,.73,0,1,0,2.83s0,2.1,0,2.83a5.25,5.25,0,0,0,.32,1.67,3.46,3.46,0,0,0,.79,1.22,3.41,3.41,0,0,0,1.22.79,5,5,0,0,0,1.67.32c.73,0,1,0,2.83,0s2.1,0,2.84,0a5,5,0,0,0,1.67-.32,3.29,3.29,0,0,0,1.21-.79,3.49,3.49,0,0,0,.8-1.22,5.25,5.25,0,0,0,.32-1.67c0-.73,0-1,0-2.83s0-2.1,0-2.83a5.2,5.2,0,0,0-.32-1.67,3.49,3.49,0,0,0-.8-1.22,3.29,3.29,0,0,0-1.21-.79,5,5,0,0,0-1.67-.32c-.74,0-1,0-2.84,0" style="fill:#fff"></path><path d="M299,208.34a3.53,3.53,0,1,0,3.53,3.53,3.54,3.54,0,0,0-3.53-3.53m0,5.82a2.29,2.29,0,1,1,2.29-2.29,2.3,2.3,0,0,1-2.29,2.29" style="fill:#fff"></path><path d="M303.53,208.2a.83.83,0,1,1-.83-.82.83.83,0,0,1,.83.82" style="fill:#fff"></path><path d="M395.89,217.59h-13.5V207.3h13.5Zm-12.52-1H394.9v-8.32H383.37Z" style="fill:#fff"></path><polygon points="389.34 213.55 382.57 208.18 383.18 207.41 389.32 212.28 395.08 207.42 395.71 208.17 389.34 213.55" style="fill:#fff"></polygon><rect x="381.83" y="213.78" width="7.08" height="0.98" transform="translate(-38.22 336.72) rotate(-45.2)" style="fill:#fff"></rect><rect x="392.71" y="210.97" width="0.98" height="6.91" transform="matrix(0.77, -0.63, 0.63, 0.77, -46.84, 297.81)" style="fill:#fff"></rect><path d="M277.41,68.39a1,1,0,0,1-.63-.22l-5.91-4.85a1,1,0,0,1-.37-.76,1,1,0,0,1,.35-.77l5.91-5.09a1,1,0,1,1,1.3,1.52l-5,4.31,5,4.09a1,1,0,0,1,.13,1.41A1,1,0,0,1,277.41,68.39Z" style="fill:#263238"></path></g></svg>