<svg xmlns="http://www.w3.org/2000/svg" viewBox="0 0 500 500"><g id="freepik--Shadow--inject-3"><ellipse id="freepik--path--inject-3" cx="250" cy="416.24" rx="193.89" ry="11.32" style="fill:#f5f5f5"></ellipse></g><g id="freepik--Device--inject-3"><rect x="212.32" y="77.53" width="188.74" height="339.47" rx="10.4" style="fill:#263238"></rect><path d="M394.75,88.9V405a4.62,4.62,0,0,1-4.69,4.62H222.94a4.14,4.14,0,0,1-4.19-4.24V88.52a3.73,3.73,0,0,1,3.59-3.88h41.78a2.94,2.94,0,0,1,2.69,1.88l1.73,4.26a2.94,2.94,0,0,0,2.69,1.86h71.13a2.91,2.91,0,0,0,2.69-1.83l1.73-4.28a3,3,0,0,1,2.69-1.89h41.18A4.22,4.22,0,0,1,394.75,88.9Z" style="fill:#7E57C2"></path><rect x="218.75" y="104.39" width="176" height="257.25" style="fill:#fff;opacity:0.30000000000000004;isolation:isolate"></rect><circle cx="302.76" cy="85.06" r="2.42" style="fill:#fff;opacity:0.6000000000000001;isolation:isolate"></circle><path d="M310.07,85.06a1.55,1.55,0,1,1-1.55-1.55A1.54,1.54,0,0,1,310.07,85.06Z" style="fill:#fff;opacity:0.6000000000000001;isolation:isolate"></path><rect x="238.6" y="94.48" width="2.17" height="2.9" transform="translate(479.37 191.86) rotate(180)" style="fill:#fff;opacity:0.6000000000000001;isolation:isolate"></rect><rect x="235.06" y="93.51" width="2.17" height="3.86" transform="translate(472.29 190.89) rotate(180)" style="fill:#fff;opacity:0.6000000000000001;isolation:isolate"></rect><rect x="231.51" y="92.55" width="2.17" height="4.83" transform="translate(465.2 189.93) rotate(180)" style="fill:#fff;opacity:0.6000000000000001;isolation:isolate"></rect><rect x="227.97" y="91.58" width="2.17" height="5.8" transform="translate(458.12 188.96) rotate(180)" style="fill:#fff;opacity:0.6000000000000001;isolation:isolate"></rect><rect x="374" y="93.42" width="1.29" height="2.9" style="fill:#fff;opacity:0.6000000000000001;isolation:isolate"></rect><rect x="376.17" y="92.37" width="10.27" height="5.01" transform="translate(762.61 189.75) rotate(180)" style="fill:#fff;opacity:0.6000000000000001;isolation:isolate"></rect><path d="M282.71,158.78a27.37,27.37,0,1,1-27.37-27.37A27.33,27.33,0,0,1,282.71,158.78Z" style="fill:#fff;opacity:0.4;isolation:isolate"></path><path d="M269.41,182.25a27.42,27.42,0,0,1-27,.68c.35-.06.69-.1,1-.14h0l-.06,0c2.62-2.87,2.5-8.81,1.68-14.07a9.55,9.55,0,0,1-.52-1,19.43,19.43,0,0,1-2.39-5.55,7.34,7.34,0,0,1-2.41-3.63,3.51,3.51,0,0,1,1.21-3.89c-.07-.81-.11-1.64-.12-2.47h0s-3.3-3-1.24-4.55,2.52-3.86,3.78-6.53,6.87-6.13,12.82-2.08c0,0,3.16-1.08,4.56-.29a8.39,8.39,0,0,1,2.51,2.87,2.11,2.11,0,0,1,3.2-.1c1.62,1.68.34,7.71,1.72,9.19s-1.22,3.07-1.65,3.35a15,15,0,0,1-.71,2.39,27.73,27.73,0,0,1-2.1,10.9,11.2,11.2,0,0,1-.52,1,10.92,10.92,0,0,1-6.25,5.09,10.39,10.39,0,0,1-1.9.41,9.47,9.47,0,0,0,.37,3.44c.69,2.06,2.37,3.67,5.81,4.24a.13.13,0,0,1,0,.05c.72,0,1.44.08,2.15.08,1.86.11,3.63.3,5.16.49A6.18,6.18,0,0,1,269.41,182.25Z" style="opacity:0.30000000000000004;isolation:isolate"></path><rect x="271.58" y="173.94" width="11.88" height="11.88" rx="2.37" style="fill:#7E57C2"></rect><path d="M280.46,179.89a2.94,2.94,0,1,1-2.94-2.95A2.94,2.94,0,0,1,280.46,179.89Z" style="opacity:0.30000000000000004;isolation:isolate"></path><path d="M344.75,144H306.61a3.85,3.85,0,0,1-3.85-3.85h0a3.86,3.86,0,0,1,3.85-3.85h38.14a3.86,3.86,0,0,1,3.85,3.85h0A3.85,3.85,0,0,1,344.75,144Z" style="fill:#fff;opacity:0.5;isolation:isolate"></path><path d="M365.66,158.77H305.07a2.31,2.31,0,0,1-2.31-2.3h0a2.31,2.31,0,0,1,2.31-2.31h60.59a2.31,2.31,0,0,1,2.31,2.31h0A2.31,2.31,0,0,1,365.66,158.77Z" style="fill:#fff;opacity:0.5;isolation:isolate"></path><path d="M345.66,168.77H305.07a2.31,2.31,0,0,1-2.31-2.3h0a2.31,2.31,0,0,1,2.31-2.31h40.59a2.31,2.31,0,0,1,2.31,2.31h0A2.31,2.31,0,0,1,345.66,168.77Z" style="fill:#fff;opacity:0.5;isolation:isolate"></path><rect x="292.48" y="391.91" width="28.09" height="10.08" rx="2.36" style="opacity:0.30000000000000004;isolation:isolate"></rect><rect x="253.92" y="370.5" width="105.2" height="4.62" rx="2.31" style="fill:#fff;opacity:0.5;isolation:isolate"></rect><rect x="268.92" y="380.5" width="75.2" height="4.62" rx="2.31" style="fill:#fff;opacity:0.5;isolation:isolate"></rect><rect x="225.88" y="191.23" width="161.29" height="51.5" style="fill:#fff;opacity:0.4;isolation:isolate"></rect><path d="M333.4,200.78H303.5a2.19,2.19,0,0,1-2.19-2.19h0a2.19,2.19,0,0,1,2.19-2.19h29.9a2.2,2.2,0,0,1,2.2,2.19h0A2.2,2.2,0,0,1,333.4,200.78Z" style="fill:#fff;opacity:0.5;isolation:isolate"></path><path d="M361.4,209.78H303.5a2.19,2.19,0,0,1-2.19-2.19h0a2.19,2.19,0,0,1,2.19-2.19h57.9a2.2,2.2,0,0,1,2.2,2.19h0A2.2,2.2,0,0,1,361.4,209.78Z" style="fill:#fff;opacity:0.5;isolation:isolate"></path><rect x="231.84" y="196.4" width="59.51" height="40.73" style="opacity:0.30000000000000004;isolation:isolate"></rect><polygon points="231.84 227.58 245.95 214.24 257.93 225.92 268.34 215.82 291.35 237.13 231.84 237.13 231.84 227.58" style="opacity:0.30000000000000004;isolation:isolate"></polygon><circle cx="280.76" cy="206.49" r="3.96" style="fill:#fff;opacity:0.5;isolation:isolate"></circle><rect x="225.88" y="247.73" width="161.29" height="51.5" style="fill:#fff;opacity:0.4;isolation:isolate"></rect><path d="M333.4,257.28H303.5a2.19,2.19,0,0,1-2.19-2.19h0a2.19,2.19,0,0,1,2.19-2.19h29.9a2.2,2.2,0,0,1,2.2,2.19h0A2.2,2.2,0,0,1,333.4,257.28Z" style="fill:#fff;opacity:0.5;isolation:isolate"></path><path d="M361.4,266.28H303.5a2.19,2.19,0,0,1-2.19-2.19h0a2.19,2.19,0,0,1,2.19-2.19h57.9a2.2,2.2,0,0,1,2.2,2.19h0A2.2,2.2,0,0,1,361.4,266.28Z" style="fill:#fff;opacity:0.5;isolation:isolate"></path><rect x="231.84" y="252.9" width="59.51" height="40.73" style="opacity:0.30000000000000004;isolation:isolate"></rect><polygon points="231.84 284.08 245.95 270.74 257.93 282.42 268.34 272.32 291.35 293.63 231.84 293.63 231.84 284.08" style="opacity:0.30000000000000004;isolation:isolate"></polygon><circle cx="280.76" cy="262.99" r="3.96" style="fill:#fff;opacity:0.5;isolation:isolate"></circle><rect x="225.88" y="304.23" width="161.29" height="51.5" style="fill:#fff;opacity:0.4;isolation:isolate"></rect><path d="M333.4,313.78H303.5a2.19,2.19,0,0,1-2.19-2.19h0a2.19,2.19,0,0,1,2.19-2.19h29.9a2.2,2.2,0,0,1,2.2,2.19h0A2.2,2.2,0,0,1,333.4,313.78Z" style="fill:#fff;opacity:0.5;isolation:isolate"></path><path d="M361.4,322.78H303.5a2.19,2.19,0,0,1-2.19-2.19h0a2.19,2.19,0,0,1,2.19-2.19h57.9a2.2,2.2,0,0,1,2.2,2.19h0A2.2,2.2,0,0,1,361.4,322.78Z" style="fill:#fff;opacity:0.5;isolation:isolate"></path><rect x="231.84" y="309.4" width="59.51" height="40.73" style="opacity:0.30000000000000004;isolation:isolate"></rect><polygon points="231.84 340.58 245.95 327.24 257.93 338.92 268.34 328.82 291.35 350.13 231.84 350.13 231.84 340.58" style="opacity:0.30000000000000004;isolation:isolate"></polygon><circle cx="280.76" cy="319.49" r="3.96" style="fill:#fff;opacity:0.5;isolation:isolate"></circle><rect x="218.75" y="104.39" width="176" height="23.14" style="opacity:0.30000000000000004;isolation:isolate"></rect><polygon points="235.06 107.68 227.85 111.73 235.06 115.79 242.27 111.73 235.06 107.68" style="fill:#fff"></polygon><polygon points="235.06 117.42 230 114.58 227.85 115.79 235.06 119.85 242.27 115.79 240.12 114.58 235.06 117.42" style="fill:#fff"></polygon><polygon points="235.06 121.48 230 118.64 227.85 119.85 235.06 123.9 242.27 119.85 240.12 118.64 235.06 121.48" style="fill:#fff"></polygon><rect x="324.29" y="110.75" width="28.09" height="10.08" rx="2.36" style="fill:#7E57C2"></rect><rect x="358.29" y="110.75" width="28.09" height="10.08" rx="2.36" style="fill:#7E57C2"></rect><rect x="324.29" y="110.75" width="28.09" height="10.08" rx="2.36" style="fill:#fff;opacity:0.2;isolation:isolate"></rect><rect x="358.29" y="110.75" width="28.09" height="10.08" rx="2.36" style="fill:#fff;opacity:0.2;isolation:isolate"></rect></g></svg>